<svg xmlns="http://www.w3.org/2000/svg" xmlns:xlink="http://www.w3.org/1999/xlink" width="1040" height="515.91"><rect width="1040" height="515.91" rx="5" ry="5" class="a"/><svg y="0%" x="0%"><circle cx="20" cy="20" r="6" fill="#ff5f58"/><circle cx="40" cy="20" r="6" fill="#ffbd2e"/><circle cx="60" cy="20" r="6" fill="#18c132"/></svg><svg height="455.91" viewBox="0 0 100 45.591" width="1000" x="15" xmlns="http://www.w3.org/2000/svg" xmlns:xlink="http://www.w3.org/1999/xlink" y="50"><style>@keyframes q{0%{transform:translateX(0)}.07%{transform:translateX(-100px)}.09%{transform:translateX(-200px)}6.92%{transform:translateX(-400px)}6.93%{transform:translateX(-500px)}28.06%{transform:translateX(-900px)}28.1%{transform:translateX(-1000px)}30.72%{transform:translateX(-1200px)}31.25%{transform:translateX(-1300px)}31.61%{transform:translateX(-1400px)}32.4%{transform:translateX(-1500px)}32.96%{transform:translateX(-1600px)}33.31%{transform:translateX(-1700px)}34.24%{transform:translateX(-1800px)}36.75%{transform:translateX(-1900px)}37.05%{transform:translateX(-2100px)}37.35%{transform:translateX(-2300px)}38.51%{transform:translateX(-2500px)}40.37%{transform:translateX(-2800px)}42.32%{transform:translateX(-2900px)}42.33%{transform:translateX(-3000px)}42.45%{transform:translateX(-3100px)}42.49%{transform:translateX(-3200px)}42.57%{transform:translateX(-3300px)}42.84%{transform:translateX(-3400px)}43.35%{transform:translateX(-3500px)}44.22%{transform:translateX(-3600px)}44.92%{transform:translateX(-3700px)}44.95%{transform:translateX(-3800px)}44.97%{transform:translateX(-3900px)}45%{transform:translateX(-4000px)}49.94%{transform:translateX(-4100px)}49.95%{transform:translateX(-4200px)}50.38%{transform:translateX(-4300px)}50.78%{transform:translateX(-4400px)}51.53%{transform:translateX(-4500px)}52.06%{transform:translateX(-4600px)}52.4%{transform:translateX(-4700px)}53.26%{transform:translateX(-4800px)}54.14%{transform:translateX(-4900px)}54.35%{transform:translateX(-5000px)}54.36%{transform:translateX(-5100px)}54.72%{transform:translateX(-5300px)}55.45%{transform:translateX(-5600px)}56.02%{transform:translateX(-5700px)}56.41%{transform:translateX(-5800px)}56.62%{transform:translateX(-5900px)}57.35%{transform:translateX(-6000px)}60.44%{transform:translateX(-6200px)}63.92%{transform:translateX(-6400px)}63.93%{transform:translateX(-6500px)}64.16%{transform:translateX(-6600px)}90.53%{transform:translateX(-6700px)}90.54%{transform:translateX(-6900px)}90.57%{transform:translateX(-7000px)}to{transform:translateX(-7200px)}}.a{fill:#282d35}.f{fill:#a8cc8c;font-weight:700}.f,.g,.h,.i,.j{white-space:pre}.g{fill:#66c2cd;font-weight:700}.h,.i,.j{fill:#fc6}.i,.j{fill:#b9c0cb}.j{fill:#9c9}.k{fill:#747369}.k,.l,.m,.n,.s{white-space:pre}.l{fill:#d3d0c8;text-decoration:underline}.m,.n,.s{fill:#a8cc8c}.n,.s{fill:#d3d0c8}.s{fill:#f2777a}</style><g font-family="Monaco,Consolas,Menlo,'Bitstream Vera Sans Mono','Powerline Symbols',monospace" font-size="1.67"><defs><symbol id="1"><text y="1.67" class="f">➜</text><text x="3.006" y="1.67" class="g">~</text></symbol><symbol id="2"><text y="1.67" class="f">➜</text><text x="3.006" y="1.67" class="g">~</text><text x="5.01" y="1.67" class="h">#</text><text x="7.014" y="1.67" class="h">to</text><text x="10.02" y="1.67" class="h">install</text><text x="18.036" y="1.67" class="h">glasskube</text><text x="28.056" y="1.67" class="h">run:</text><text x="33.066" y="1.67" class="h">brew</text><text x="38.076" y="1.67" class="h">install</text><text x="46.092" y="1.67" class="h">glasskube</text></symbol><symbol id="3"><text y="1.67" class="f">➜</text><text x="3.006" y="1.67" class="g">~</text><text x="5.01" y="1.67" class="i">g</text></symbol><symbol id="4"><text y="1.67" class="f">➜</text><text x="3.006" y="1.67" class="g">~</text><text x="5.01" y="1.67" class="j">glasskube</text><text x="15.03" y="1.67" class="k">install</text><text x="23.046" y="1.67" class="k">cert-manager</text></symbol><symbol id="5"><text y="1.67" class="f">➜</text><text x="3.006" y="1.67" class="g">~</text><text x="5.01" y="1.67" class="i">glasskube</text><text x="15.03" y="1.67" class="i">bootstrap</text></symbol><symbol id="6"><text y="1.67" class="f">➜</text><text x="3.006" y="1.67" class="g">~</text><text x="5.01" y="1.67" class="j">glasskube</text><text x="15.03" y="1.67" class="l">bootstrap</text></symbol><symbol id="7"><text y="1.67" class="i">##</text><text x="3.006" y="1.67" class="i">Installing</text><text x="14.028" y="1.67" class="i">GLASSKUBE</text><text x="24.048" y="1.67" class="i">##</text></symbol><symbol id="8"><text y="1.67" class="i">🧊</text><text x="3.006" y="1.67" class="i">The</text><text x="7.014" y="1.67" class="i">missing</text><text x="15.03" y="1.67" class="i">Package</text><text x="23.046" y="1.67" class="i">Manager</text><text x="31.062" y="1.67" class="i">for</text><text x="35.07" y="1.67" class="i">Kubernetes</text><text x="46.092" y="1.67" class="i">📦</text></symbol><symbol id="9"><text y="1.67" class="m">*</text><text x="2.004" y="1.67" class="m">Fetching</text><text x="11.022" y="1.67" class="m">Glasskube</text><text x="21.042" y="1.67" class="m">manifest</text><text x="30.06" y="1.67" class="m">from</text><text x="35.07" y="1.67" class="m">http://localhost:9648/manifest.yaml</text></symbol><symbol id="10"><text y="1.67" class="m">*</text><text x="2.004" y="1.67" class="m">Successfully</text><text x="15.03" y="1.67" class="m">fetched</text><text x="23.046" y="1.67" class="m">Glasskube</text><text x="33.066" y="1.67" class="m">manifests</text></symbol><symbol id="11"><text y="1.67" class="m">*</text><text x="2.004" y="1.67" class="m">Applying</text><text x="11.022" y="1.67" class="m">Glasskube</text><text x="21.042" y="1.67" class="m">manifests</text></symbol><symbol id="12"><text y="1.67" class="m">*</text><text x="2.004" y="1.67" class="m">Glasskube</text><text x="12.024" y="1.67" class="m">is</text><text x="15.03" y="1.67" class="m">successfully</text><text x="28.056" y="1.67" class="m">installed.</text></symbol><symbol id="13"><text y="1.67" class="f">➜</text><text x="3.006" y="1.67" class="g">~</text><text x="5.01" y="1.67" class="j">glasskube</text><text x="15.03" y="1.67" class="k">bootstrap</text></symbol><symbol id="14"><text y="1.67" class="f">➜</text><text x="3.006" y="1.67" class="g">~</text><text x="5.01" y="1.67" class="j">glasskube</text><text x="15.03" y="1.67" class="n">install</text><text x="23.046" y="1.67" class="n">cert-manager</text></symbol><symbol id="15"><text y="1.67" class="i">Installing</text><text x="11.022" y="1.67" class="i">cert-manager.</text></symbol><symbol id="16"><text y="1.67" class="i">Installed</text><text x="10.02" y="1.67" class="i">successfully.</text></symbol><symbol id="a"><path fill="transparent" d="M0 0h100v22H0z"/></symbol><symbol id="b"><path fill="#6f7683" d="M0 0h1.102v2.171H0z"/></symbol></defs><path class="a" d="M0 0h100v45.591H0z"/><g style="animation-duration:26.551276999999995s;animation-iteration-count:infinite;animation-name:q;animation-timing-function:steps(1,end)"><svg width="7300"><svg><use xlink:href="#a"/><use xlink:href="#b" x="-.004"/></svg><svg x="100"><use xlink:href="#a"/><use xlink:href="#b" x="-.004"/></svg><svg x="200"><use xlink:href="#a"/><use xlink:href="#b" x="4.996"/><use xlink:href="#1"/></svg><svg x="300"><use xlink:href="#a"/><use xlink:href="#b" x="54.996"/><text y="1.67" class="f">➜</text><text x="3.006" y="1.67" class="g">~</text><text x="5.01" y="1.67" class="i">#</text><text x="7.014" y="1.67" class="i">to</text><text x="10.02" y="1.67" class="i">install</text><text x="18.036" y="1.67" class="i">glasskube</text><text x="28.056" y="1.67" class="i">run:</text><text x="33.066" y="1.67" class="i">brew</text><text x="38.076" y="1.67" class="i">install</text><text x="46.092" y="1.67" class="i">glasskube</text></svg><svg x="400"><use xlink:href="#a"/><use xlink:href="#b" x="54.996"/><use xlink:href="#2"/></svg><svg x="500"><use xlink:href="#a"/><use xlink:href="#b" x="54.996"/><use xlink:href="#2"/></svg><svg x="600"><use xlink:href="#a"/><use xlink:href="#b" x="-.004" y="2.146"/><use xlink:href="#2"/></svg><svg x="700"><use xlink:href="#a"/><use xlink:href="#b" x="-.004" y="2.146"/><use xlink:href="#2"/></svg><svg x="800"><use xlink:href="#a"/><use xlink:href="#b" x="-.004" y="2.146"/><use xlink:href="#2"/></svg><svg x="900"><use xlink:href="#a"/><use xlink:href="#b" x="-.004" y="2.146"/><use xlink:href="#2"/></svg><svg x="1000"><use xlink:href="#a"/><use xlink:href="#b" x="4.996" y="2.146"/><use xlink:href="#2"/><use xlink:href="#1" y="2.171"/></svg><svg x="1100"><use xlink:href="#a"/><use xlink:href="#b" x="5.996" y="2.146"/><use xlink:href="#2"/><use xlink:href="#3" y="2.171"/></svg><svg x="1200"><use xlink:href="#a"/><use xlink:href="#b" x="5.996" y="2.146"/><use xlink:href="#2"/><text y="3.841" class="f">➜</text><text x="3.006" y="3.841" class="g">~</text><text x="5.01" y="3.841" class="s">g</text><text x="6.012" y="3.841" class="k">lasskube</text><text x="15.03" y="3.841" class="k">install</text><text x="23.046" y="3.841" class="k">cert-manager</text></svg><svg x="1300"><use xlink:href="#a"/><use xlink:href="#b" x="6.996" y="2.146"/><use xlink:href="#2"/><text y="3.841" class="f">➜</text><text x="3.006" y="3.841" class="g">~</text><text x="5.01" y="3.841" class="s">gl</text><text x="7.014" y="3.841" class="k">asskube</text><text x="15.03" y="3.841" class="k">install</text><text x="23.046" y="3.841" class="k">cert-manager</text></svg><svg x="1400"><use xlink:href="#a"/><use xlink:href="#b" x="7.996" y="2.146"/><use xlink:href="#2"/><text y="3.841" class="f">➜</text><text x="3.006" y="3.841" class="g">~</text><text x="5.01" y="3.841" class="s">gla</text><text x="8.016" y="3.841" class="k">sskube</text><text x="15.03" y="3.841" class="k">install</text><text x="23.046" y="3.841" class="k">cert-manager</text></svg><svg x="1500"><use xlink:href="#a"/><use xlink:href="#b" x="8.996" y="2.146"/><use xlink:href="#2"/><text y="3.841" class="f">➜</text><text x="3.006" y="3.841" class="g">~</text><text x="5.01" y="3.841" class="s">glas</text><text x="9.018" y="3.841" class="k">skube</text><text x="15.03" y="3.841" class="k">install</text><text x="23.046" y="3.841" class="k">cert-manager</text></svg><svg x="1600"><use xlink:href="#a"/><use xlink:href="#b" x="9.996" y="2.146"/><use xlink:href="#2"/><text y="3.841" class="f">➜</text><text x="3.006" y="3.841" class="g">~</text><text x="5.01" y="3.841" class="s">glass</text><text x="10.02" y="3.841" class="k">kube</text><text x="15.03" y="3.841" class="k">install</text><text x="23.046" y="3.841" class="k">cert-manager</text></svg><svg x="1700"><use xlink:href="#a"/><use xlink:href="#b" x="10.996" y="2.146"/><use xlink:href="#2"/><text y="3.841" class="f">➜</text><text x="3.006" y="3.841" class="g">~</text><text x="5.01" y="3.841" class="s">glassk</text><text x="11.022" y="3.841" class="k">ube</text><text x="15.03" y="3.841" class="k">install</text><text x="23.046" y="3.841" class="k">cert-manager</text></svg><svg x="1800"><use xlink:href="#a"/><use xlink:href="#b" x="11.996" y="2.146"/><use xlink:href="#2"/><text y="3.841" class="f">➜</text><text x="3.006" y="3.841" class="g">~</text><text x="5.01" y="3.841" class="s">glassku</text><text x="12.024" y="3.841" class="k">be</text><text x="15.03" y="3.841" class="k">install</text><text x="23.046" y="3.841" class="k">cert-manager</text></svg><svg x="1900"><use xlink:href="#a"/><use xlink:href="#b" x="12.996" y="2.146"/><use xlink:href="#2"/><text y="3.841" class="f">➜</text><text x="3.006" y="3.841" class="g">~</text><text x="5.01" y="3.841" class="s">glasskub</text><text x="13.026" y="3.841" class="k">e</text><text x="15.03" y="3.841" class="k">install</text><text x="23.046" y="3.841" class="k">cert-manager</text></svg><svg x="2000"><use xlink:href="#a"/><use xlink:href="#b" x="13.996" y="2.146"/><use xlink:href="#2"/><text y="3.841" class="f">➜</text><text x="3.006" y="3.841" class="g">~</text><text x="5.01" y="3.841" class="s">glasskube</text><text x="15.03" y="3.841" class="k">install</text><text x="23.046" y="3.841" class="k">cert-manager</text></svg><svg x="2100"><use xlink:href="#a"/><use xlink:href="#b" x="13.996" y="2.146"/><use xlink:href="#2"/><use xlink:href="#4" y="2.171"/></svg><svg x="2200"><use xlink:href="#a"/><use xlink:href="#b" x="14.996" y="2.146"/><use xlink:href="#2"/><use xlink:href="#4" y="2.171"/></svg><svg x="2300"><use xlink:href="#a"/><use xlink:href="#b" x="14.996" y="2.146"/><use xlink:href="#2"/><use xlink:href="#4" y="2.171"/></svg><svg x="2400"><use xlink:href="#a"/><use xlink:href="#b" x="15.996" y="2.146"/><use xlink:href="#2"/><text y="3.841" class="f">➜</text><text x="3.006" y="3.841" class="g">~</text><text x="5.01" y="3.841" class="j">glasskube</text><text x="15.03" y="3.841" class="i">b</text></svg><svg x="2500"><use xlink:href="#a"/><use xlink:href="#b" x="15.996" y="2.146"/><use xlink:href="#2"/><text y="3.841" class="f">➜</text><text x="3.006" y="3.841" class="g">~</text><text x="5.01" y="3.841" class="j">glasskube</text><text x="15.03" y="3.841" class="l">b</text><text x="16.032" y="3.841" class="k">ootstrap</text></svg><svg x="2600"><use xlink:href="#a"/><use xlink:href="#b" x="23.996" y="2.146"/><use xlink:href="#2"/><use xlink:href="#5" y="2.171"/></svg><svg x="2700"><use xlink:href="#a"/><use xlink:href="#b" x="23.996" y="2.146"/><use xlink:href="#2"/><use xlink:href="#5" y="2.171"/></svg><svg x="2800"><use xlink:href="#a"/><use xlink:href="#b" x="23.996" y="2.146"/><use xlink:href="#2"/><use xlink:href="#6" y="2.171"/></svg><svg x="2900"><use xlink:href="#a"/><use xlink:href="#b" x="-.004" y="4.317"/><use xlink:href="#2"/><use xlink:href="#6" y="2.171"/></svg><svg x="3000"><use xlink:href="#a"/><use xlink:href="#b" x="-.004" y="4.317"/><use xlink:href="#2"/><use xlink:href="#6" y="2.171"/></svg><svg x="3100"><use xlink:href="#a"/><use xlink:href="#b" x="-.004" y="13.001"/><use xlink:href="#2"/><use xlink:href="#6" y="2.171"/><use xlink:href="#7" y="6.513"/><use xlink:href="#8" y="8.684"/><use xlink:href="#9" y="10.855"/></svg><svg x="3200"><use xlink:href="#a"/><use xlink:href="#b" x="-.004" y="17.343"/><use xlink:href="#2"/><use xlink:href="#6" y="2.171"/><use xlink:href="#7" y="6.513"/><use xlink:href="#8" y="8.684"/><use xlink:href="#9" y="10.855"/><use xlink:href="#10" y="13.026"/><use xlink:href="#11" y="15.197"/></svg><svg x="3300"><use xlink:href="#a"/><use xlink:href="#b" x="98.996" y="17.343"/><use xlink:href="#2"/><use xlink:href="#6" y="2.171"/><use xlink:href="#7" y="6.513"/><use xlink:href="#8" y="8.684"/><use xlink:href="#9" y="10.855"/><use xlink:href="#10" y="13.026"/><use xlink:href="#11" y="15.197"/><text y="19.038" class="i">Applying</text><text x="9.018" y="19.038" class="i">manifests</text><text x="21.042" y="19.038" class="i">0%</text><text x="24.048" y="19.038" class="i">|</text><text x="74.148" y="19.038" class="i">|</text><text x="76.152" y="19.038" class="i">(0/13,</text><text x="83.166" y="19.038" class="i">0</text><text x="85.17" y="19.038" class="i">it/hr)</text><text x="92.184" y="19.038" class="i">[0s:0s]</text></svg><svg x="3400"><use xlink:href="#a"/><use xlink:href="#b" x="98.996" y="17.343"/><use xlink:href="#2"/><use xlink:href="#6" y="2.171"/><use xlink:href="#7" y="6.513"/><use xlink:href="#8" y="8.684"/><use xlink:href="#9" y="10.855"/><use xlink:href="#10" y="13.026"/><use xlink:href="#11" y="15.197"/><text y="19.038" class="i">Applying</text><text x="9.018" y="19.038" class="i">glasskube-controller-manager</text><text x="38.076" y="19.038" class="i">(ServiceAccount)</text><text x="56.112" y="19.038" class="i">30%</text><text x="60.12" y="19.038" class="i">|███</text><text x="74.148" y="19.038" class="i">|</text><text x="76.152" y="19.038" class="i">(4/13,</text><text x="83.166" y="19.038" class="i">55</text><text x="86.172" y="19.038" class="i">it/s)</text><text x="92.184" y="19.038" class="i">[0s:0s]</text></svg><svg x="3500"><use xlink:href="#a"/><use xlink:href="#b" x="98.996" y="17.343"/><use xlink:href="#2"/><use xlink:href="#6" y="2.171"/><use xlink:href="#7" y="6.513"/><use xlink:href="#8" y="8.684"/><use xlink:href="#9" y="10.855"/><use xlink:href="#10" y="13.026"/><use xlink:href="#11" y="15.197"/><text y="19.038" class="i">Applying</text><text x="9.018" y="19.038" class="i">glasskube-proxy-rolebinding</text><text x="37.074" y="19.038" class="i">(ClusterRoleBinding)</text><text x="59.118" y="19.038" class="i">84%</text><text x="63.126" y="19.038" class="i">|███████</text><text x="73.146" y="19.038" class="i">|</text><text x="75.15" y="19.038" class="i">(11/13,</text><text x="83.166" y="19.038" class="i">53</text><text x="86.172" y="19.038" class="i">it/s)</text><text x="92.184" y="19.038" class="i">[0s:0s]</text></svg><svg x="3600"><use xlink:href="#a"/><use xlink:href="#b" x="98.996" y="17.343"/><use xlink:href="#2"/><use xlink:href="#6" y="2.171"/><use xlink:href="#7" y="6.513"/><use xlink:href="#8" y="8.684"/><use xlink:href="#9" y="10.855"/><use xlink:href="#10" y="13.026"/><use xlink:href="#11" y="15.197"/><text y="19.038" class="i">Applying</text><text x="9.018" y="19.038" class="i">glasskube-controller-manager-metrics-service</text><text x="54.108" y="19.038" class="i">(Service)</text><text x="65.13" y="19.038" class="i">92%</text><text x="69.138" y="19.038" class="i">|██</text><text x="73.146" y="19.038" class="i">|</text><text x="75.15" y="19.038" class="i">(12/13,</text><text x="83.166" y="19.038" class="i">27</text><text x="86.172" y="19.038" class="i">it/s)</text><text x="92.184" y="19.038" class="i">[0s:0s]</text></svg><svg x="3700"><use xlink:href="#a"/><use xlink:href="#b" x="98.996" y="17.343"/><use xlink:href="#2"/><use xlink:href="#6" y="2.171"/><use xlink:href="#7" y="6.513"/><use xlink:href="#8" y="8.684"/><use xlink:href="#9" y="10.855"/><use xlink:href="#10" y="13.026"/><use xlink:href="#11" y="15.197"/><text y="19.038" class="i">Checking</text><text x="9.018" y="19.038" class="i">Status</text><text x="16.032" y="19.038" class="i">of</text><text x="19.038" y="19.038" class="i">glasskube-controller-manager</text><text x="48.096" y="19.038" class="i">(Deployment)</text><text x="62.124" y="19.038" class="i">92%</text><text x="66.132" y="19.038" class="i">|█████</text><text x="73.146" y="19.038" class="i">|</text><text x="75.15" y="19.038" class="i">(12/13,</text><text x="83.166" y="19.038" class="i">19</text><text x="86.172" y="19.038" class="i">it/s)</text><text x="92.184" y="19.038" class="i">[0s:0s]</text></svg><svg x="3800"><use xlink:href="#a"/><use xlink:href="#b" x="-.004" y="19.514"/><use xlink:href="#2"/><use xlink:href="#6" y="2.171"/><use xlink:href="#7" y="6.513"/><use xlink:href="#8" y="8.684"/><use xlink:href="#9" y="10.855"/><use xlink:href="#10" y="13.026"/><use xlink:href="#11" y="15.197"/><use xlink:href="#12" y="17.368"/></svg><svg x="3900"><use xlink:href="#a"/><use xlink:href="#b" x="-.004" y="19.514"/><use xlink:href="#2"/><use xlink:href="#6" y="2.171"/><use xlink:href="#7" y="6.513"/><use xlink:href="#8" y="8.684"/><use xlink:href="#9" y="10.855"/><use xlink:href="#10" y="13.026"/><use xlink:href="#11" y="15.197"/><use xlink:href="#12" y="17.368"/></svg><svg x="4000"><use xlink:href="#a"/><use xlink:href="#b" x="4.996" y="19.514"/><use xlink:href="#2"/><use xlink:href="#6" y="2.171"/><use xlink:href="#7" y="6.513"/><use xlink:href="#8" y="8.684"/><use xlink:href="#9" y="10.855"/><use xlink:href="#10" y="13.026"/><use xlink:href="#11" y="15.197"/><use xlink:href="#12" y="17.368"/><use xlink:href="#1" y="19.539"/></svg><svg x="4100"><use xlink:href="#a"/><use xlink:href="#b" x="5.996" y="19.514"/><use xlink:href="#2"/><use xlink:href="#6" y="2.171"/><use xlink:href="#7" y="6.513"/><use xlink:href="#8" y="8.684"/><use xlink:href="#9" y="10.855"/><use xlink:href="#10" y="13.026"/><use xlink:href="#11" y="15.197"/><use xlink:href="#12" y="17.368"/><use xlink:href="#3" y="19.539"/></svg><svg x="4200"><use xlink:href="#a"/><use xlink:href="#b" x="5.996" y="19.514"/><use xlink:href="#2"/><use xlink:href="#6" y="2.171"/><use xlink:href="#7" y="6.513"/><use xlink:href="#8" y="8.684"/><use xlink:href="#9" y="10.855"/><use xlink:href="#10" y="13.026"/><use xlink:href="#11" y="15.197"/><use xlink:href="#12" y="17.368"/><text y="21.209" class="f">➜</text><text x="3.006" y="21.209" class="g">~</text><text x="5.01" y="21.209" class="s">g</text><text x="6.012" y="21.209" class="k">lasskube</text><text x="15.03" y="21.209" class="k">bootstrap</text></svg><svg x="4300"><use xlink:href="#a"/><use xlink:href="#b" x="6.996" y="19.514"/><use xlink:href="#2"/><use xlink:href="#6" y="2.171"/><use xlink:href="#7" y="6.513"/><use xlink:href="#8" y="8.684"/><use xlink:href="#9" y="10.855"/><use xlink:href="#10" y="13.026"/><use xlink:href="#11" y="15.197"/><use xlink:href="#12" y="17.368"/><text y="21.209" class="f">➜</text><text x="3.006" y="21.209" class="g">~</text><text x="5.01" y="21.209" class="s">gl</text><text x="7.014" y="21.209" class="k">asskube</text><text x="15.03" y="21.209" class="k">bootstrap</text></svg><svg x="4400"><use xlink:href="#a"/><use xlink:href="#b" x="7.996" y="19.514"/><use xlink:href="#2"/><use xlink:href="#6" y="2.171"/><use xlink:href="#7" y="6.513"/><use xlink:href="#8" y="8.684"/><use xlink:href="#9" y="10.855"/><use xlink:href="#10" y="13.026"/><use xlink:href="#11" y="15.197"/><use xlink:href="#12" y="17.368"/><text y="21.209" class="f">➜</text><text x="3.006" y="21.209" class="g">~</text><text x="5.01" y="21.209" class="s">gla</text><text x="8.016" y="21.209" class="k">sskube</text><text x="15.03" y="21.209" class="k">bootstrap</text></svg><svg x="4500"><use xlink:href="#a"/><use xlink:href="#b" x="8.996" y="19.514"/><use xlink:href="#2"/><use xlink:href="#6" y="2.171"/><use xlink:href="#7" y="6.513"/><use xlink:href="#8" y="8.684"/><use xlink:href="#9" y="10.855"/><use xlink:href="#10" y="13.026"/><use xlink:href="#11" y="15.197"/><use xlink:href="#12" y="17.368"/><text y="21.209" class="f">➜</text><text x="3.006" y="21.209" class="g">~</text><text x="5.01" y="21.209" class="s">glas</text><text x="9.018" y="21.209" class="k">skube</text><text x="15.03" y="21.209" class="k">bootstrap</text></svg><svg x="4600"><use xlink:href="#a"/><use xlink:href="#b" x="9.996" y="19.514"/><use xlink:href="#2"/><use xlink:href="#6" y="2.171"/><use xlink:href="#7" y="6.513"/><use xlink:href="#8" y="8.684"/><use xlink:href="#9" y="10.855"/><use xlink:href="#10" y="13.026"/><use xlink:href="#11" y="15.197"/><use xlink:href="#12" y="17.368"/><text y="21.209" class="f">➜</text><text x="3.006" y="21.209" class="g">~</text><text x="5.01" y="21.209" class="s">glass</text><text x="10.02" y="21.209" class="k">kube</text><text x="15.03" y="21.209" class="k">bootstrap</text></svg><svg x="4700"><use xlink:href="#a"/><use xlink:href="#b" x="10.996" y="19.514"/><use xlink:href="#2"/><use xlink:href="#6" y="2.171"/><use xlink:href="#7" y="6.513"/><use xlink:href="#8" y="8.684"/><use xlink:href="#9" y="10.855"/><use xlink:href="#10" y="13.026"/><use xlink:href="#11" y="15.197"/><use xlink:href="#12" y="17.368"/><text y="21.209" class="f">➜</text><text x="3.006" y="21.209" class="g">~</text><text x="5.01" y="21.209" class="s">glassk</text><text x="11.022" y="21.209" class="k">ube</text><text x="15.03" y="21.209" class="k">bootstrap</text></svg><svg x="4800"><use xlink:href="#a"/><use xlink:href="#b" x="11.996" y="19.514"/><use xlink:href="#2"/><use xlink:href="#6" y="2.171"/><use xlink:href="#7" y="6.513"/><use xlink:href="#8" y="8.684"/><use xlink:href="#9" y="10.855"/><use xlink:href="#10" y="13.026"/><use xlink:href="#11" y="15.197"/><use xlink:href="#12" y="17.368"/><text y="21.209" class="f">➜</text><text x="3.006" y="21.209" class="g">~</text><text x="5.01" y="21.209" class="s">glassku</text><text x="12.024" y="21.209" class="k">be</text><text x="15.03" y="21.209" class="k">bootstrap</text></svg><svg x="4900"><use xlink:href="#a"/><use xlink:href="#b" x="12.996" y="19.514"/><use xlink:href="#2"/><use xlink:href="#6" y="2.171"/><use xlink:href="#7" y="6.513"/><use xlink:href="#8" y="8.684"/><use xlink:href="#9" y="10.855"/><use xlink:href="#10" y="13.026"/><use xlink:href="#11" y="15.197"/><use xlink:href="#12" y="17.368"/><text y="21.209" class="f">➜</text><text x="3.006" y="21.209" class="g">~</text><text x="5.01" y="21.209" class="s">glasskub</text><text x="13.026" y="21.209" class="k">e</text><text x="15.03" y="21.209" class="k">bootstrap</text></svg><svg x="5000"><use xlink:href="#a"/><use xlink:href="#b" x="13.996" y="19.514"/><use xlink:href="#2"/><use xlink:href="#6" y="2.171"/><use xlink:href="#7" y="6.513"/><use xlink:href="#8" y="8.684"/><use xlink:href="#9" y="10.855"/><use xlink:href="#10" y="13.026"/><use xlink:href="#11" y="15.197"/><use xlink:href="#12" y="17.368"/><text y="21.209" class="f">➜</text><text x="3.006" y="21.209" class="g">~</text><text x="5.01" y="21.209" class="s">glasskube</text><text x="15.03" y="21.209" class="k">bootstrap</text></svg><svg x="5100"><use xlink:href="#a"/><use xlink:href="#b" x="13.996" y="19.514"/><use xlink:href="#2"/><use xlink:href="#6" y="2.171"/><use xlink:href="#7" y="6.513"/><use xlink:href="#8" y="8.684"/><use xlink:href="#9" y="10.855"/><use xlink:href="#10" y="13.026"/><use xlink:href="#11" y="15.197"/><use xlink:href="#12" y="17.368"/><use xlink:href="#13" y="19.539"/></svg><svg x="5200"><use xlink:href="#a"/><use xlink:href="#b" x="14.996" y="19.514"/><use xlink:href="#2"/><use xlink:href="#6" y="2.171"/><use xlink:href="#7" y="6.513"/><use xlink:href="#8" y="8.684"/><use xlink:href="#9" y="10.855"/><use xlink:href="#10" y="13.026"/><use xlink:href="#11" y="15.197"/><use xlink:href="#12" y="17.368"/><use xlink:href="#13" y="19.539"/></svg><svg x="5300"><use xlink:href="#a"/><use xlink:href="#b" x="14.996" y="19.514"/><use xlink:href="#2"/><use xlink:href="#6" y="2.171"/><use xlink:href="#7" y="6.513"/><use xlink:href="#8" y="8.684"/><use xlink:href="#9" y="10.855"/><use xlink:href="#10" y="13.026"/><use xlink:href="#11" y="15.197"/><use xlink:href="#12" y="17.368"/><use xlink:href="#13" y="19.539"/></svg><svg x="5400"><use xlink:href="#a"/><use xlink:href="#b" x="15.996" y="19.514"/><use xlink:href="#2"/><use xlink:href="#6" y="2.171"/><use xlink:href="#7" y="6.513"/><use xlink:href="#8" y="8.684"/><use xlink:href="#9" y="10.855"/><use xlink:href="#10" y="13.026"/><use xlink:href="#11" y="15.197"/><use xlink:href="#12" y="17.368"/><text y="21.209" class="f">➜</text><text x="3.006" y="21.209" class="g">~</text><text x="5.01" y="21.209" class="j">glasskube</text><text x="15.03" y="21.209" class="i">i</text></svg><svg x="5500"><use xlink:href="#a"/><use xlink:href="#b" x="15.996" y="19.514"/><use xlink:href="#2"/><use xlink:href="#6" y="2.171"/><use xlink:href="#7" y="6.513"/><use xlink:href="#8" y="8.684"/><use xlink:href="#9" y="10.855"/><use xlink:href="#10" y="13.026"/><use xlink:href="#11" y="15.197"/><use xlink:href="#12" y="17.368"/><text y="21.209" class="f">➜</text><text x="3.006" y="21.209" class="g">~</text><text x="5.01" y="21.209" class="j">glasskube</text><text x="15.03" y="21.209" class="i">i</text><text x="16.032" y="21.209" class="k">nstall</text><text x="23.046" y="21.209" class="k">cert-manager</text></svg><svg x="5600"><use xlink:href="#a"/><use xlink:href="#b" x="15.996" y="19.514"/><use xlink:href="#2"/><use xlink:href="#6" y="2.171"/><use xlink:href="#7" y="6.513"/><use xlink:href="#8" y="8.684"/><use xlink:href="#9" y="10.855"/><use xlink:href="#10" y="13.026"/><use xlink:href="#11" y="15.197"/><use xlink:href="#12" y="17.368"/><text y="21.209" class="f">➜</text><text x="3.006" y="21.209" class="g">~</text><text x="5.01" y="21.209" class="j">glasskube</text><text x="15.03" y="21.209" class="n">i</text><text x="16.032" y="21.209" class="k">nstall</text><text x="23.046" y="21.209" class="k">cert-manager</text></svg><svg x="5700"><use xlink:href="#a"/><use xlink:href="#b" x="16.996" y="19.514"/><use xlink:href="#2"/><use xlink:href="#6" y="2.171"/><use xlink:href="#7" y="6.513"/><use xlink:href="#8" y="8.684"/><use xlink:href="#9" y="10.855"/><use xlink:href="#10" y="13.026"/><use xlink:href="#11" y="15.197"/><use xlink:href="#12" y="17.368"/><text y="21.209" class="f">➜</text><text x="3.006" y="21.209" class="g">~</text><text x="5.01" y="21.209" class="j">glasskube</text><text x="15.03" y="21.209" class="n">in</text><text x="17.034" y="21.209" class="k">stall</text><text x="23.046" y="21.209" class="k">cert-manager</text></svg><svg x="5800"><use xlink:href="#a"/><use xlink:href="#b" x="17.996" y="19.514"/><use xlink:href="#2"/><use xlink:href="#6" y="2.171"/><use xlink:href="#7" y="6.513"/><use xlink:href="#8" y="8.684"/><use xlink:href="#9" y="10.855"/><use xlink:href="#10" y="13.026"/><use xlink:href="#11" y="15.197"/><use xlink:href="#12" y="17.368"/><text y="21.209" class="f">➜</text><text x="3.006" y="21.209" class="g">~</text><text x="5.01" y="21.209" class="j">glasskube</text><text x="15.03" y="21.209" class="n">ins</text><text x="18.036" y="21.209" class="k">tall</text><text x="23.046" y="21.209" class="k">cert-manager</text></svg><svg x="5900"><use xlink:href="#a"/><use xlink:href="#b" x="18.996" y="19.514"/><use xlink:href="#2"/><use xlink:href="#6" y="2.171"/><use xlink:href="#7" y="6.513"/><use xlink:href="#8" y="8.684"/><use xlink:href="#9" y="10.855"/><use xlink:href="#10" y="13.026"/><use xlink:href="#11" y="15.197"/><use xlink:href="#12" y="17.368"/><text y="21.209" class="f">➜</text><text x="3.006" y="21.209" class="g">~</text><text x="5.01" y="21.209" class="j">glasskube</text><text x="15.03" y="21.209" class="n">inst</text><text x="19.038" y="21.209" class="k">all</text><text x="23.046" y="21.209" class="k">cert-manager</text></svg><svg x="6000"><use xlink:href="#a"/><use xlink:href="#b" x="19.996" y="19.514"/><use xlink:href="#2"/><use xlink:href="#6" y="2.171"/><use xlink:href="#7" y="6.513"/><use xlink:href="#8" y="8.684"/><use xlink:href="#9" y="10.855"/><use xlink:href="#10" y="13.026"/><use xlink:href="#11" y="15.197"/><use xlink:href="#12" y="17.368"/><text y="21.209" class="f">➜</text><text x="3.006" y="21.209" class="g">~</text><text x="5.01" y="21.209" class="j">glasskube</text><text x="15.03" y="21.209" class="n">insta</text><text x="20.04" y="21.209" class="k">ll</text><text x="23.046" y="21.209" class="k">cert-manager</text></svg><svg x="6100"><use xlink:href="#a"/><use xlink:href="#b" x="34.996" y="19.514"/><use xlink:href="#2"/><use xlink:href="#6" y="2.171"/><use xlink:href="#7" y="6.513"/><use xlink:href="#8" y="8.684"/><use xlink:href="#9" y="10.855"/><use xlink:href="#10" y="13.026"/><use xlink:href="#11" y="15.197"/><use xlink:href="#12" y="17.368"/><text y="21.209" class="f">➜</text><text x="3.006" y="21.209" class="g">~</text><text x="5.01" y="21.209" class="i">glasskube</text><text x="15.03" y="21.209" class="i">install</text><text x="23.046" y="21.209" class="i">cert-manager</text></svg><svg x="6200"><use xlink:href="#a"/><use xlink:href="#b" x="34.996" y="19.514"/><use xlink:href="#2"/><use xlink:href="#6" y="2.171"/><use xlink:href="#7" y="6.513"/><use xlink:href="#8" y="8.684"/><use xlink:href="#9" y="10.855"/><use xlink:href="#10" y="13.026"/><use xlink:href="#11" y="15.197"/><use xlink:href="#12" y="17.368"/><use xlink:href="#14" y="19.539"/></svg><svg x="6300"><use xlink:href="#a"/><use xlink:href="#b" x="-.004" y="21.685"/><use xlink:href="#2"/><use xlink:href="#6" y="2.171"/><use xlink:href="#7" y="6.513"/><use xlink:href="#8" y="8.684"/><use xlink:href="#9" y="10.855"/><use xlink:href="#10" y="13.026"/><use xlink:href="#11" y="15.197"/><use xlink:href="#12" y="17.368"/><use xlink:href="#14" y="19.539"/></svg><svg x="6400"><use xlink:href="#a"/><use xlink:href="#b" x="-.004" y="21.685"/><use xlink:href="#2"/><use xlink:href="#6" y="2.171"/><use xlink:href="#7" y="6.513"/><use xlink:href="#8" y="8.684"/><use xlink:href="#9" y="10.855"/><use xlink:href="#10" y="13.026"/><use xlink:href="#11" y="15.197"/><use xlink:href="#12" y="17.368"/><use xlink:href="#14" y="19.539"/></svg><svg x="6500"><use xlink:href="#a"/><use xlink:href="#b" x="-.004" y="21.685"/><use xlink:href="#2"/><use xlink:href="#6" y="2.171"/><use xlink:href="#7" y="6.513"/><use xlink:href="#8" y="8.684"/><use xlink:href="#9" y="10.855"/><use xlink:href="#10" y="13.026"/><use xlink:href="#11" y="15.197"/><use xlink:href="#12" y="17.368"/><use xlink:href="#14" y="19.539"/></svg><svg x="6600"><use xlink:href="#a"/><use xlink:href="#b" x="-.004" y="23.856"/><use xlink:href="#2"/><use xlink:href="#6" y="2.171"/><use xlink:href="#7" y="6.513"/><use xlink:href="#8" y="8.684"/><use xlink:href="#9" y="10.855"/><use xlink:href="#10" y="13.026"/><use xlink:href="#11" y="15.197"/><use xlink:href="#12" y="17.368"/><use xlink:href="#14" y="19.539"/><use xlink:href="#15" y="21.71"/></svg><svg x="6700"><use xlink:href="#a"/><use xlink:href="#b" x="-.004" y="26.027"/><use xlink:href="#2"/><use xlink:href="#6" y="2.171"/><use xlink:href="#7" y="6.513"/><use xlink:href="#8" y="8.684"/><use xlink:href="#9" y="10.855"/><use xlink:href="#10" y="13.026"/><use xlink:href="#11" y="15.197"/><use xlink:href="#12" y="17.368"/><use xlink:href="#14" y="19.539"/><use xlink:href="#15" y="21.71"/><use xlink:href="#16" y="23.881"/></svg><svg x="6800"><use xlink:href="#a"/><use xlink:href="#b" x="-.004" y="26.027"/><use xlink:href="#2"/><use xlink:href="#6" y="2.171"/><use xlink:href="#7" y="6.513"/><use xlink:href="#8" y="8.684"/><use xlink:href="#9" y="10.855"/><use xlink:href="#10" y="13.026"/><use xlink:href="#11" y="15.197"/><use xlink:href="#12" y="17.368"/><use xlink:href="#14" y="19.539"/><use xlink:href="#15" y="21.71"/><use xlink:href="#16" y="23.881"/></svg><svg x="6900"><use xlink:href="#a"/><use xlink:href="#b" x="-.004" y="26.027"/><use xlink:href="#2"/><use xlink:href="#6" y="2.171"/><use xlink:href="#7" y="6.513"/><use xlink:href="#8" y="8.684"/><use xlink:href="#9" y="10.855"/><use xlink:href="#10" y="13.026"/><use xlink:href="#11" y="15.197"/><use xlink:href="#12" y="17.368"/><use xlink:href="#14" y="19.539"/><use xlink:href="#15" y="21.71"/><use xlink:href="#16" y="23.881"/></svg><svg x="7000"><use xlink:href="#a"/><use xlink:href="#b" x="4.996" y="26.027"/><use xlink:href="#2"/><use xlink:href="#6" y="2.171"/><use xlink:href="#7" y="6.513"/><use xlink:href="#8" y="8.684"/><use xlink:href="#9" y="10.855"/><use xlink:href="#10" y="13.026"/><use xlink:href="#11" y="15.197"/><use xlink:href="#12" y="17.368"/><use xlink:href="#14" y="19.539"/><use xlink:href="#15" y="21.71"/><use xlink:href="#16" y="23.881"/><use xlink:href="#1" y="26.052"/></svg><svg x="7100"><use xlink:href="#a"/><use xlink:href="#b" x="-.004" y="28.198"/><use xlink:href="#2"/><use xlink:href="#6" y="2.171"/><use xlink:href="#7" y="6.513"/><use xlink:href="#8" y="8.684"/><use xlink:href="#9" y="10.855"/><use xlink:href="#10" y="13.026"/><use xlink:href="#11" y="15.197"/><use xlink:href="#12" y="17.368"/><use xlink:href="#14" y="19.539"/><use xlink:href="#15" y="21.71"/><use xlink:href="#16" y="23.881"/><use xlink:href="#1" y="26.052"/></svg><svg x="7200"><use xlink:href="#a"/><use xlink:href="#b" x="-.004" y="28.198"/><use xlink:href="#2"/><use xlink:href="#6" y="2.171"/><use xlink:href="#7" y="6.513"/><use xlink:href="#8" y="8.684"/><use xlink:href="#9" y="10.855"/><use xlink:href="#10" y="13.026"/><use xlink:href="#11" y="15.197"/><use xlink:href="#12" y="17.368"/><use xlink:href="#14" y="19.539"/><use xlink:href="#15" y="21.71"/><use xlink:href="#16" y="23.881"/><use xlink:href="#1" y="26.052"/></svg></svg></g></g></svg></svg>